<svg width="36" height="36" viewBox="0 0 36 36" fill="none" xmlns="http://www.w3.org/2000/svg">
<path d="M32.2056 17.1885H31.5965V14.7327C31.5965 12.3803 30.9895 10.0768 29.8388 8.0434L29.9601 7.92218C30.3854 7.49812 30.4445 6.83191 30.1009 6.33846C27.3398 2.36953 22.8163 0 18.0001 0C13.184 0 8.66047 2.36953 5.89979 6.33825C5.55638 6.83128 5.6153 7.49714 6.03915 7.92112C6.08176 7.9638 6.12212 8.0043 6.16142 8.04368C5.01076 10.077 4.40382 12.3804 4.40382 14.7328V17.1887H3.79491C2.87719 17.1887 2.13062 17.935 2.13062 18.8523V19.8444C2.13062 20.1357 2.36672 20.3717 2.65796 20.3717C2.94919 20.3717 3.1853 20.1357 3.1853 19.8444V18.8523C3.1853 18.5165 3.45882 18.2434 3.79491 18.2434H4.40382V24.2917H3.79491C3.45875 24.2917 3.1853 24.0182 3.1853 23.682V22.3052C3.1853 22.0139 2.94919 21.7779 2.65796 21.7779C2.36672 21.7779 2.13062 22.0139 2.13062 22.3052V23.6819C2.13062 24.5996 2.87726 25.3463 3.79491 25.3463H4.42182C4.54008 26.1486 5.23294 26.7664 6.06762 26.7664H6.72624C6.89731 27.4196 7.49244 27.9029 8.19844 27.9029H9.61897C10.4581 27.9029 11.1407 27.2202 11.1407 26.3811V16.1532C11.1407 15.3141 10.4581 14.6315 9.61897 14.6315H8.19844C7.49244 14.6315 6.89731 15.1149 6.72624 15.7679H6.06762C5.85268 15.7679 5.6473 15.8093 5.45851 15.8839V14.7327C5.45851 12.6392 5.98044 10.5887 6.96973 8.76312C7.1749 8.86676 7.40665 8.91246 7.64171 8.88975C8.01212 8.85452 8.34469 8.65709 8.5543 8.34792C8.83098 7.93976 9.13592 7.54706 9.46076 7.18073C9.65405 6.96284 9.63409 6.62955 9.41619 6.43627C9.19829 6.24298 8.86501 6.26302 8.67179 6.48091C8.31671 6.88127 7.98343 7.31039 7.68137 7.75617C7.58588 7.86403 7.50509 7.8705 7.39723 7.78746C7.39723 7.78746 6.94013 7.33085 6.78558 7.17581C6.72272 7.11295 6.71422 7.01423 6.7654 6.94069C9.32928 3.25505 13.5292 1.05469 18.0001 1.05469C22.4711 1.05469 26.6711 3.25505 29.2351 6.94097C29.2862 7.01438 29.2779 7.11295 29.2148 7.17588L28.603 7.7876C28.4951 7.87071 28.4146 7.86396 28.319 7.75624C25.991 4.32295 22.1335 2.27327 18.0001 2.27327C15.2971 2.27327 12.7243 3.12792 10.5598 4.74483C10.3265 4.91913 10.2786 5.2496 10.4529 5.4829C10.6272 5.71627 10.9577 5.76415 11.1909 5.58984C13.1718 4.11012 15.5264 3.32796 18.0001 3.32796C21.7834 3.32796 25.3145 5.20467 27.4461 8.34813C27.6556 8.65723 27.9883 8.85466 28.3587 8.88982C28.3981 8.89362 28.4373 8.89544 28.4765 8.89544C28.6706 8.89544 28.8596 8.8489 29.0304 8.76277C30.0198 10.5884 30.5418 12.6392 30.5418 14.7328V15.884C30.353 15.8095 30.1476 15.768 29.9327 15.768H29.2737C29.1026 15.1147 28.5076 14.6313 27.8018 14.6313H26.3815C25.5424 14.6313 24.8598 15.3142 24.8598 16.1536V17.2709C24.8598 17.5622 25.0959 17.7982 25.3872 17.7982C25.6785 17.7982 25.9145 17.5622 25.9145 17.2709V16.1536C25.9145 15.8958 26.124 15.686 26.3815 15.686H27.8018C28.0592 15.686 28.2687 15.8958 28.2687 16.1536V26.3813C28.2687 26.6387 28.0592 26.8481 27.8018 26.8481H26.3815C26.124 26.8481 25.9145 26.6387 25.9145 26.3813V19.7318C25.9145 19.4405 25.6785 19.2045 25.3872 19.2045C25.0959 19.2045 24.8598 19.4405 24.8598 19.7318V26.3813C24.8598 27.2203 25.5424 27.9028 26.3815 27.9028H27.8018C28.5077 27.9028 29.1028 27.4196 29.2738 26.7665H29.9327C30.1428 26.7665 30.3438 26.727 30.529 26.6555L30.5054 29.537C30.4887 31.5792 28.8135 33.2407 26.7713 33.2407H24.1462C23.9085 32.2637 23.0267 31.536 21.9777 31.536H19.7048C18.4741 31.536 17.4728 32.5373 17.4728 33.768C17.4728 34.9988 18.4741 36 19.7049 36H21.9777C23.0268 36 23.9086 35.2723 24.1462 34.2953H26.7714C29.3904 34.2953 31.5387 32.1647 31.5601 29.5457L31.5946 25.346H32.2056C33.123 25.346 33.8694 24.5996 33.8694 23.6822V18.8524C33.8694 17.9349 33.123 17.1885 32.2056 17.1885ZM7.73143 16.1532C7.73143 15.8958 7.94096 15.6862 8.19851 15.6862H9.61904C9.87659 15.6862 10.0861 15.8957 10.0861 16.1532V26.3812C10.0861 26.6387 9.87659 26.8483 9.61904 26.8483H8.19844C7.94089 26.8483 7.73136 26.6388 7.73136 26.3812V16.1532H7.73143ZM6.06762 16.8227H6.67674V25.7118H6.06762C5.73181 25.7118 5.45851 25.4386 5.45851 25.1028V17.4318C5.45851 17.096 5.73181 16.8227 6.06762 16.8227ZM21.9777 34.9453H19.7049C19.0557 34.9453 18.5276 34.4171 18.5276 33.768C18.5276 33.1189 19.0557 32.5907 19.7049 32.5907H21.9777C22.6269 32.5907 23.155 33.1189 23.155 33.768C23.155 34.4171 22.6269 34.9453 21.9777 34.9453ZM29.9327 25.7118H29.3233V16.8227H29.9327C30.2686 16.8227 30.5418 17.096 30.5418 17.4318V25.0984L30.5417 25.1035C30.5413 25.439 30.2683 25.7118 29.9327 25.7118ZM32.8147 23.6822C32.8147 24.018 32.5414 24.2912 32.2056 24.2912H31.5965V18.2431H32.2056C32.5414 18.2431 32.8147 18.5164 32.8147 18.8523V23.6822Z" fill="#EEEEEE"/>
</svg>
