<svg width="18" height="19" viewBox="0 0 18 19" fill="none" xmlns="http://www.w3.org/2000/svg">
<g clip-path="url(#clip0)">
<path d="M15.7229 3.09999H14.2048V1.58669C14.2048 1.11104 13.8144 0.721924 13.3375 0.721924H2.27711C1.80001 0.721924 1.40967 1.11104 1.40967 1.58669V15.4228C1.40967 15.8984 1.80001 16.2876 2.27715 16.2876H3.79523V17.8009C3.79523 18.2765 4.18539 18.6657 4.6627 18.6657H12.036C12.5129 18.6657 13.1878 18.3989 13.535 18.0731L15.9582 15.7992C16.3059 15.4734 16.59 14.8175 16.59 14.3419L16.5904 3.96483C16.5904 3.48915 16.2 3.09999 15.7229 3.09999ZM3.79516 3.96479V15.639H2.27711C2.15958 15.639 2.06027 15.54 2.06027 15.4228V1.58669C2.06027 1.46953 2.15958 1.37053 2.27711 1.37053H13.3376C13.4549 1.37053 13.5544 1.46953 13.5544 1.58669V3.10003H4.66263C4.18532 3.10003 3.79516 3.48915 3.79516 3.96479ZM15.5123 15.327L13.089 17.6007C13.0394 17.6472 12.9748 17.6928 12.9034 17.7362V15.7471C12.9034 15.5986 12.9635 15.4649 13.0626 15.3655C13.1626 15.2667 13.2966 15.2066 13.4456 15.2066H15.6153C15.5817 15.2522 15.5472 15.2941 15.5123 15.327ZM15.9393 14.3418C15.9393 14.406 15.9276 14.4804 15.9098 14.558H13.4455C12.7874 14.5593 12.2541 15.0909 12.2527 15.7471V17.9909C12.1753 18.0065 12.1007 18.017 12.0359 18.017H4.66263V18.017C4.54486 18.017 4.44579 17.918 4.44579 17.8009V3.96476C4.44579 3.8476 4.5449 3.74859 4.66263 3.74859H15.7228C15.8404 3.74859 15.9397 3.8476 15.9397 3.96476L15.9393 14.3418Z" fill="black"/>
<path d="M13.3376 6.12671H7.04845C6.86866 6.12671 6.72314 6.27177 6.72314 6.45099C6.72314 6.63022 6.86869 6.77528 7.04845 6.77528H13.3376C13.5172 6.77528 13.6629 6.63022 13.6629 6.45099C13.6629 6.27177 13.5172 6.12671 13.3376 6.12671Z" fill="black"/>
<path d="M13.3376 10.4504H7.04845C6.86866 10.4504 6.72314 10.5955 6.72314 10.7747C6.72314 10.9539 6.86869 11.099 7.04845 11.099H13.3376C13.5172 11.099 13.6629 10.9539 13.6629 10.7747C13.6629 10.5955 13.5172 10.4504 13.3376 10.4504Z" fill="black"/>
<path d="M10.5183 12.6123H7.04844C6.86866 12.6123 6.72314 12.7574 6.72314 12.9366C6.72314 13.1158 6.86866 13.2609 7.04844 13.2609H10.5183C10.6979 13.2609 10.8434 13.1158 10.8434 12.9366C10.8434 12.7574 10.6979 12.6123 10.5183 12.6123Z" fill="black"/>
<path d="M13.3376 8.28857H7.04845C6.86866 8.28857 6.72314 8.43363 6.72314 8.61286C6.72314 8.79209 6.86869 8.93714 7.04845 8.93714H13.3376C13.5172 8.93714 13.6629 8.79209 13.6629 8.61286C13.6629 8.43363 13.5172 8.28857 13.3376 8.28857Z" fill="black"/>
</g>
<defs>
<clipPath id="clip0">
<rect width="18" height="17.9438" fill="white" transform="translate(0 0.721924)"/>
</clipPath>
</defs>
</svg>
