<svg width="36" height="40" viewBox="0 0 36 40" fill="none" xmlns="http://www.w3.org/2000/svg">
<path d="M9.29688 26.8438C9.22643 26.8438 9.15886 26.8717 9.10905 26.9215C9.05924 26.9714 9.03125 27.0389 9.03125 27.1094V28.1719C9.03125 28.2423 9.05924 28.3099 9.10905 28.3597C9.15886 28.4095 9.22643 28.4375 9.29688 28.4375C9.36732 28.4375 9.43489 28.4095 9.4847 28.3597C9.53451 28.3099 9.5625 28.2423 9.5625 28.1719V27.1094C9.5625 27.0389 9.53451 26.9714 9.4847 26.9215C9.43489 26.8717 9.36732 26.8438 9.29688 26.8438Z" fill="#EEEEEE"/>
<path d="M8.5 26.8438C8.42955 26.8438 8.36199 26.8717 8.31217 26.9215C8.26236 26.9714 8.23438 27.0389 8.23438 27.1094V28.1719C8.23438 28.2423 8.26236 28.3099 8.31217 28.3597C8.36199 28.4095 8.42955 28.4375 8.5 28.4375C8.57045 28.4375 8.63801 28.4095 8.68783 28.3597C8.73764 28.3099 8.76562 28.2423 8.76562 28.1719V27.1094C8.76562 27.0389 8.73764 26.9714 8.68783 26.9215C8.63801 26.8717 8.57045 26.8438 8.5 26.8438Z" fill="#EEEEEE"/>
<path d="M10.0938 26.8438C10.0233 26.8438 9.95574 26.8717 9.90592 26.9215C9.85611 26.9714 9.82812 27.0389 9.82812 27.1094V28.1719C9.82812 28.2423 9.85611 28.3099 9.90592 28.3597C9.95574 28.4095 10.0233 28.4375 10.0938 28.4375C10.1642 28.4375 10.2318 28.4095 10.2816 28.3597C10.3314 28.3099 10.3594 28.2423 10.3594 28.1719V27.1094C10.3594 27.0389 10.3314 26.9714 10.2816 26.9215C10.2318 26.8717 10.1642 26.8438 10.0938 26.8438Z" fill="#EEEEEE"/>
<path d="M13.0156 26.8438C12.9452 26.8438 12.8776 26.8717 12.8278 26.9215C12.778 26.9714 12.75 27.0389 12.75 27.1094V28.1719C12.75 28.2423 12.778 28.3099 12.8278 28.3597C12.8776 28.4095 12.9452 28.4375 13.0156 28.4375C13.0861 28.4375 13.1536 28.4095 13.2035 28.3597C13.2533 28.3099 13.2812 28.2423 13.2812 28.1719V27.1094C13.2812 27.0389 13.2533 26.9714 13.2035 26.9215C13.1536 26.8717 13.0861 26.8438 13.0156 26.8438Z" fill="#EEEEEE"/>
<path d="M12.2188 26.8438C12.1483 26.8438 12.0807 26.8717 12.0309 26.9215C11.9811 26.9714 11.9531 27.0389 11.9531 27.1094V28.1719C11.9531 28.2423 11.9811 28.3099 12.0309 28.3597C12.0807 28.4095 12.1483 28.4375 12.2188 28.4375C12.2892 28.4375 12.3568 28.4095 12.4066 28.3597C12.4564 28.3099 12.4844 28.2423 12.4844 28.1719V27.1094C12.4844 27.0389 12.4564 26.9714 12.4066 26.9215C12.3568 26.8717 12.2892 26.8438 12.2188 26.8438Z" fill="#EEEEEE"/>
<path d="M13.8125 28.4375C13.8829 28.4375 13.9505 28.4095 14.0003 28.3597C14.0501 28.3099 14.0781 28.2423 14.0781 28.1719V27.1094C14.0781 27.0389 14.0501 26.9714 14.0003 26.9215C13.9505 26.8717 13.8829 26.8438 13.8125 26.8438C13.7421 26.8438 13.6745 26.8717 13.6247 26.9215C13.5749 26.9714 13.5469 27.0389 13.5469 27.1094V28.1719C13.5469 28.2423 13.5749 28.3099 13.6247 28.3597C13.6745 28.4095 13.7421 28.4375 13.8125 28.4375Z" fill="#EEEEEE"/>
<path d="M11.4219 25.7812C11.4923 25.7812 11.5599 25.7533 11.6097 25.7035C11.6595 25.6536 11.6875 25.5861 11.6875 25.5156V24.4531C11.6875 24.3827 11.6595 24.3151 11.6097 24.2653C11.5599 24.2155 11.4923 24.1875 11.4219 24.1875C11.3514 24.1875 11.2839 24.2155 11.234 24.2653C11.1842 24.3151 11.1562 24.3827 11.1562 24.4531V25.5156C11.1562 25.5861 11.1842 25.6536 11.234 25.7035C11.2839 25.7533 11.3514 25.7812 11.4219 25.7812Z" fill="#EEEEEE"/>
<path d="M10.625 24.1875C10.5546 24.1875 10.487 24.2155 10.4372 24.2653C10.3874 24.3151 10.3594 24.3827 10.3594 24.4531V25.5156C10.3594 25.5861 10.3874 25.6536 10.4372 25.7035C10.487 25.7533 10.5546 25.7812 10.625 25.7812C10.6954 25.7812 10.763 25.7533 10.8128 25.7035C10.8626 25.6536 10.8906 25.5861 10.8906 25.5156V24.4531C10.8906 24.3827 10.8626 24.3151 10.8128 24.2653C10.763 24.2155 10.6954 24.1875 10.625 24.1875Z" fill="#EEEEEE"/>
<path d="M12.2188 25.7812C12.2892 25.7812 12.3568 25.7533 12.4066 25.7035C12.4564 25.6536 12.4844 25.5861 12.4844 25.5156V24.4531C12.4844 24.3827 12.4564 24.3151 12.4066 24.2653C12.3568 24.2155 12.2892 24.1875 12.2188 24.1875C12.1483 24.1875 12.0807 24.2155 12.0309 24.2653C11.9811 24.3151 11.9531 24.3827 11.9531 24.4531V25.5156C11.9531 25.5861 11.9811 25.6536 12.0309 25.7035C12.0807 25.7533 12.1483 25.7812 12.2188 25.7812Z" fill="#EEEEEE"/>
<path d="M16.4688 32.9531H14.7734L16.7065 29.0876C16.7267 29.0471 16.7362 29.0021 16.7341 28.9569C16.7321 28.9116 16.7185 28.8677 16.6947 28.8292C16.6709 28.7907 16.6376 28.7589 16.5981 28.7368C16.5585 28.7148 16.514 28.7032 16.4688 28.7031H15.1406V26.3125C15.1406 26.2421 15.1126 26.1745 15.0628 26.1247C15.013 26.0749 14.9454 26.0469 14.875 26.0469H13.5469V23.6562C13.5469 23.5858 13.5189 23.5182 13.4691 23.4684C13.4193 23.4186 13.3517 23.3906 13.2812 23.3906H9.5625C9.49205 23.3906 9.42449 23.4186 9.37467 23.4684C9.32486 23.5182 9.29688 23.5858 9.29688 23.6562V26.0469H7.4375C7.36705 26.0469 7.29949 26.0749 7.24967 26.1247C7.19986 26.1745 7.17188 26.2421 7.17188 26.3125V28.7031H6.10938V26.3125C6.10938 26.2421 6.08139 26.1745 6.03158 26.1247C5.98176 26.0749 5.9142 26.0469 5.84375 26.0469H4.78125V25.25C4.78125 25.1796 4.75326 25.112 4.70345 25.0622C4.65364 25.0124 4.58607 24.9844 4.51562 24.9844H3.71875V23.6562C3.71875 23.5858 3.69076 23.5182 3.64095 23.4684C3.59114 23.4186 3.52357 23.3906 3.45312 23.3906C3.38268 23.3906 3.31511 23.4186 3.2653 23.4684C3.21549 23.5182 3.1875 23.5858 3.1875 23.6562V24.0235L3.04074 23.9498C3.00952 23.9342 2.97553 23.9248 2.94072 23.9224C2.9059 23.9199 2.87094 23.9243 2.83782 23.9353C2.77095 23.9576 2.71567 24.0056 2.68414 24.0686C2.66853 24.0999 2.65922 24.1338 2.65675 24.1687C2.65427 24.2035 2.65868 24.2384 2.66972 24.2716C2.69201 24.3384 2.73996 24.3937 2.80301 24.4252L3.1875 24.6171V24.9844H2.92188C2.85143 24.9844 2.78386 25.0124 2.73405 25.0622C2.68424 25.112 2.65625 25.1796 2.65625 25.25V26.0469H2.125C2.05455 26.0469 1.98699 26.0749 1.93717 26.1247C1.88736 26.1745 1.85938 26.2421 1.85938 26.3125V28.7031H0.53125C0.490888 28.7031 0.451058 28.7123 0.414785 28.73C0.378513 28.7477 0.346751 28.7735 0.321914 28.8053C0.297076 28.8371 0.279816 28.8742 0.271443 28.9136C0.26307 28.9531 0.263806 28.994 0.273594 29.0332L1.25342 32.9531H0.53125C0.460802 32.9531 0.393239 32.9811 0.343425 33.0309C0.29361 33.0807 0.265625 33.1483 0.265625 33.2188C0.265625 33.2892 0.29361 33.3568 0.343425 33.4066C0.393239 33.4564 0.460802 33.4844 0.53125 33.4844H16.4688C16.5392 33.4844 16.6068 33.4564 16.6566 33.4066C16.7064 33.3568 16.7344 33.2892 16.7344 33.2188C16.7344 33.1483 16.7064 33.0807 16.6566 33.0309C16.6068 32.9811 16.5392 32.9531 16.4688 32.9531ZM14.6094 26.5781V28.7031H11.4219V26.5781H14.6094ZM9.82812 23.9219H13.0156V26.0469H9.82812V23.9219ZM7.70312 26.5781H10.8906V28.7031H7.70312V26.5781ZM3.1875 25.5156H4.25V26.0469H3.1875V25.5156ZM2.39062 26.5781H5.57812V26.8438H3.71875C3.6483 26.8438 3.58074 26.8717 3.53092 26.9215C3.48111 26.9714 3.45312 27.0389 3.45312 27.1094V28.1719C3.45312 28.2423 3.48111 28.3099 3.53092 28.3597C3.58074 28.4095 3.6483 28.4375 3.71875 28.4375H5.57812V28.7031H2.39062V26.5781ZM5.57812 27.375V27.9062H3.98438V27.375H5.57812ZM14.1797 32.9531H1.80127L0.871582 29.2344H16.0391L14.1797 32.9531Z" fill="#EEEEEE"/>
<path d="M3.98438 29.7656H1.85938C1.78893 29.7656 1.72136 29.7936 1.67155 29.8434C1.62174 29.8932 1.59375 29.9608 1.59375 30.0312C1.59375 30.1017 1.62174 30.1693 1.67155 30.2191C1.72136 30.2689 1.78893 30.2969 1.85938 30.2969H3.98438C4.05482 30.2969 4.12239 30.2689 4.1722 30.2191C4.22201 30.1693 4.25 30.1017 4.25 30.0312C4.25 29.9608 4.22201 29.8932 4.1722 29.8434C4.12239 29.7936 4.05482 29.7656 3.98438 29.7656Z" fill="#EEEEEE"/>
<path d="M5.04688 29.7656H4.78125C4.7108 29.7656 4.64324 29.7936 4.59342 29.8434C4.54361 29.8932 4.51562 29.9608 4.51562 30.0312C4.51562 30.1017 4.54361 30.1693 4.59342 30.2191C4.64324 30.2689 4.7108 30.2969 4.78125 30.2969H5.04688C5.11732 30.2969 5.18489 30.2689 5.2347 30.2191C5.28451 30.1693 5.3125 30.1017 5.3125 30.0312C5.3125 29.9608 5.28451 29.8932 5.2347 29.8434C5.18489 29.7936 5.11732 29.7656 5.04688 29.7656Z" fill="#EEEEEE"/>
<path d="M16.4688 34.2812C16.0996 34.2812 15.932 34.1807 15.7199 34.0535C15.4828 33.9112 15.214 33.75 14.6977 33.75C14.1814 33.75 13.9127 33.9112 13.6756 34.0535C13.4634 34.1807 13.2959 34.2812 12.9267 34.2812C12.5576 34.2812 12.3901 34.1807 12.178 34.0535C11.9409 33.9112 11.6722 33.75 11.1559 33.75C10.6396 33.75 10.371 33.9112 10.1339 34.0535C9.92176 34.1807 9.75425 34.2812 9.3851 34.2812C9.01594 34.2812 8.8485 34.1807 8.6364 34.0535C8.39933 33.9112 8.13062 33.75 7.61434 33.75C7.09806 33.75 6.82938 33.9112 6.59231 34.0535C6.38021 34.1807 6.2127 34.2812 5.84375 34.2812C5.4748 34.2812 5.30712 34.1807 5.09502 34.0535C4.85795 33.9112 4.58924 33.75 4.07293 33.75C3.55662 33.75 3.28797 33.9112 3.0509 34.0535C2.83867 34.1807 2.67116 34.2812 2.30207 34.2812C1.93299 34.2812 1.76538 34.1807 1.55331 34.0535C1.31624 33.9112 1.04753 33.75 0.53125 33.75C0.460802 33.75 0.393239 33.778 0.343425 33.8278C0.29361 33.8776 0.265625 33.9452 0.265625 34.0156C0.265625 34.0861 0.29361 34.1536 0.343425 34.2035C0.393239 34.2533 0.460802 34.2812 0.53125 34.2812C0.900369 34.2812 1.06788 34.3818 1.27998 34.509C1.51705 34.6513 1.78576 34.8125 2.30207 34.8125C2.81838 34.8125 3.08703 34.6513 3.3241 34.509C3.53613 34.3818 3.70371 34.2812 4.07279 34.2812C4.44188 34.2812 4.60946 34.3818 4.82156 34.509C5.05863 34.6513 5.32734 34.8125 5.84362 34.8125C6.35989 34.8125 6.62861 34.6513 6.86564 34.509C7.07774 34.3818 7.24525 34.2812 7.61434 34.2812C7.98343 34.2812 8.15097 34.3818 8.36307 34.509C8.60017 34.6513 8.86885 34.8125 9.3851 34.8125C9.90134 34.8125 10.1701 34.6513 10.4072 34.509C10.6193 34.3818 10.7868 34.2812 11.1559 34.2812C11.525 34.2812 11.6925 34.3818 11.9046 34.509C12.1418 34.6513 12.4104 34.8125 12.9267 34.8125C13.443 34.8125 13.7118 34.6513 13.9488 34.509C14.161 34.3818 14.3285 34.2812 14.6977 34.2812C15.0669 34.2812 15.2345 34.3818 15.4466 34.509C15.6837 34.6513 15.9524 34.8125 16.4688 34.8125C16.5392 34.8125 16.6068 34.7845 16.6566 34.7347C16.7064 34.6849 16.7344 34.6173 16.7344 34.5469C16.7344 34.4764 16.7064 34.4089 16.6566 34.359C16.6068 34.3092 16.5392 34.2812 16.4688 34.2812Z" fill="#EEEEEE"/>
<path d="M16.4688 35.3438C16.0996 35.3438 15.932 35.2432 15.7199 35.116C15.4828 34.9737 15.214 34.8125 14.6977 34.8125C14.1814 34.8125 13.9127 34.9737 13.6756 35.116C13.4634 35.2432 13.2959 35.3438 12.9267 35.3438C12.5576 35.3438 12.3901 35.2432 12.178 35.116C11.9409 34.9737 11.6722 34.8125 11.1559 34.8125C10.6396 34.8125 10.371 34.9737 10.1339 35.116C9.92176 35.2432 9.75425 35.3438 9.3851 35.3438C9.01594 35.3438 8.8485 35.2432 8.6364 35.116C8.39933 34.9737 8.13062 34.8125 7.61434 34.8125C7.09806 34.8125 6.82938 34.9737 6.59231 35.116C6.38021 35.2432 6.2127 35.3438 5.84375 35.3438C5.4748 35.3438 5.30712 35.2432 5.09502 35.116C4.85795 34.9737 4.58924 34.8125 4.07293 34.8125C3.55662 34.8125 3.28797 34.9737 3.0509 35.116C2.83867 35.2432 2.67116 35.3438 2.30207 35.3438C1.93299 35.3438 1.76538 35.2432 1.55331 35.116C1.31624 34.9737 1.04753 34.8125 0.53125 34.8125C0.460802 34.8125 0.393239 34.8405 0.343425 34.8903C0.29361 34.9401 0.265625 35.0077 0.265625 35.0781C0.265625 35.1486 0.29361 35.2161 0.343425 35.266C0.393239 35.3158 0.460802 35.3438 0.53125 35.3438C0.900369 35.3438 1.06788 35.4443 1.27998 35.5715C1.51705 35.7138 1.78576 35.875 2.30207 35.875C2.81838 35.875 3.08703 35.7138 3.3241 35.5715C3.53613 35.4443 3.70371 35.3438 4.07279 35.3438C4.44188 35.3438 4.60946 35.4443 4.82156 35.5715C5.05863 35.7138 5.32734 35.875 5.84362 35.875C6.35989 35.875 6.62861 35.7138 6.86564 35.5715C7.07774 35.4443 7.24525 35.3438 7.61434 35.3438C7.98343 35.3438 8.15097 35.4443 8.36307 35.5715C8.60017 35.7138 8.86885 35.875 9.3851 35.875C9.90134 35.875 10.1701 35.7138 10.4072 35.5715C10.6193 35.4443 10.7868 35.3438 11.1559 35.3438C11.525 35.3438 11.6925 35.4443 11.9046 35.5715C12.1418 35.7138 12.4104 35.875 12.9267 35.875C13.443 35.875 13.7118 35.7138 13.9488 35.5715C14.161 35.4443 14.3285 35.3438 14.6977 35.3438C15.0669 35.3438 15.2345 35.4443 15.4466 35.5715C15.6837 35.7138 15.9524 35.875 16.4688 35.875C16.5392 35.875 16.6068 35.847 16.6566 35.7972C16.7064 35.7474 16.7344 35.6798 16.7344 35.6094C16.7344 35.5389 16.7064 35.4714 16.6566 35.4215C16.6068 35.3717 16.5392 35.3438 16.4688 35.3438Z" fill="#EEEEEE"/>
<g clip-path="url(#clip0)">
<path d="M16.1707 7.68225C16.2632 7.68206 16.3539 7.6443 16.4191 7.57882C16.4846 7.51304 16.5217 7.42246 16.5215 7.33002C16.5213 7.23699 16.4836 7.14685 16.4181 7.08163C16.3523 7.01612 16.262 6.97872 16.169 6.97891C16.0766 6.9791 15.9861 7.01657 15.9206 7.08234C15.8554 7.14783 15.818 7.2387 15.8182 7.33114C15.8187 7.42388 15.8561 7.51431 15.9219 7.57982C15.9874 7.64504 16.078 7.68214 16.1707 7.68225Z" fill="#EEEEEE"/>
<path d="M26.8107 14.9811C28.3811 14.978 29.862 14.2119 30.772 12.932C30.8589 12.8096 30.8586 12.6455 30.7711 12.5234C29.8561 11.2472 28.3721 10.4871 26.8017 10.4902L23.2832 10.4973L22.5594 9.62474C22.6567 9.57395 22.7468 9.50822 22.8263 9.42834C23.03 9.22391 23.1418 8.95246 23.1412 8.66406C23.1405 8.37555 23.0277 8.10446 22.8234 7.90095C22.6189 7.69734 22.3475 7.58554 22.059 7.58622L20.8711 7.58851L20.1563 6.72658C20.5085 6.54787 20.7503 6.18197 20.7494 5.76092C20.7481 5.16537 20.2628 4.68198 19.6672 4.68308L18.4637 4.68551L17.5397 3.57123C17.4726 3.49047 17.3732 3.44377 17.2683 3.44398L15.0514 3.44845C14.9393 3.44868 14.8342 3.5022 14.7682 3.59264C14.7021 3.68299 14.6831 3.79936 14.7169 3.90611L15.4103 6.09592C15.428 6.15172 15.4583 6.20012 15.4971 6.23879C15.5869 6.32824 15.7223 6.36583 15.8516 6.32498C16.0367 6.26644 16.1393 6.06882 16.0807 5.88366L15.5318 4.15063L17.1042 4.14746L22.3712 10.4993L17.5452 10.509L16.9296 8.5651C16.8711 8.38004 16.6736 8.2775 16.4884 8.33614C16.3032 8.39478 16.2007 8.5923 16.2594 8.77747L16.8081 10.5104L16.0273 10.5121C15.2496 10.5136 14.4838 10.6002 13.7398 10.7678L11.5334 8.64998C11.4678 8.58699 11.3803 8.55192 11.2893 8.552L10.1333 8.55433C10.0117 8.55458 9.89893 8.61763 9.83495 8.72118C9.77107 8.82463 9.76521 8.95389 9.81942 9.06274L11.148 11.7297C10.7304 11.9519 10.3258 12.2036 9.93635 12.4841C9.84443 12.5503 9.79016 12.6567 9.79029 12.77C9.79048 12.864 9.82825 12.9532 9.89373 13.0184C9.90716 13.0318 9.92175 13.0442 9.9375 13.0554C10.328 13.3343 10.7338 13.5843 11.1522 13.8049L9.83439 16.4772C9.78062 16.5863 9.78699 16.7153 9.85139 16.8186C9.86571 16.8418 9.88265 16.8629 9.90153 16.8817C9.96682 16.9467 10.056 16.9844 10.1504 16.9842L11.3062 16.9819C11.3973 16.9817 11.4849 16.9461 11.5502 16.8827L13.7441 14.7554C14.4901 14.9206 15.2574 15.0043 16.0362 15.0027L16.8171 15.0013L14.7526 21.6138C14.7192 21.7207 14.7388 21.8371 14.8051 21.9272C14.8158 21.9417 14.8275 21.9553 14.8401 21.9678C14.9056 22.0331 14.995 22.0703 15.0889 22.0702L17.306 22.0658C17.4108 22.0655 17.5101 22.0185 17.5768 21.9375L18.4963 20.8194L19.6999 20.817C20.2953 20.8158 20.7788 20.3304 20.7777 19.7348C20.7768 19.3137 20.5335 18.9487 20.1806 18.7715L20.8919 17.9066L22.0799 17.9043C22.3683 17.9037 22.6393 17.7908 22.8428 17.5864C23.0464 17.382 23.1583 17.1107 23.1576 16.8222C23.1572 16.5337 23.0443 16.2627 22.8398 16.0591C22.7599 15.9795 22.6696 15.9141 22.572 15.8638L23.2921 14.9882L26.8107 14.9811ZM22.0605 8.28936C22.1611 8.28916 22.2558 8.3282 22.3271 8.39924C22.3984 8.47027 22.4378 8.56477 22.4379 8.66547C22.4382 8.76617 22.3992 8.86083 22.3282 8.93216C22.2606 8.99998 22.1716 9.03851 22.0765 9.04239L21.4532 8.29059L22.0605 8.28936ZM19.6686 5.38632C19.8764 5.38591 20.0458 5.55463 20.0463 5.76243C20.0467 5.97005 19.878 6.13945 19.6702 6.13997L19.6697 6.13997L19.0458 5.38758L19.6686 5.38632ZM10.7014 9.25643L11.1488 9.25544L12.9456 10.9802C12.5488 11.1034 12.1597 11.2504 11.7797 11.4208L10.7014 9.25643ZM11.1627 16.279L10.7156 16.2799L11.7851 14.1111C12.1648 14.2796 12.5536 14.4248 12.9499 14.5463L11.1627 16.279ZM16.0348 14.2997C15.2533 14.3013 14.4842 14.2108 13.739 14.0327C13.7275 14.0292 13.7157 14.0265 13.7039 14.0241C12.6676 13.7723 11.6781 13.3504 10.7674 12.7681C12.3385 11.7542 14.1469 11.219 16.0286 11.2152L26.8031 11.1935C27.9163 11.1911 28.9785 11.6371 29.7555 12.4109C29.8566 12.5116 29.9528 12.6177 30.0437 12.7291C29.2579 13.701 28.0673 14.2754 26.8094 14.278L17.2974 14.2972C17.2962 14.2972 17.2951 14.2972 17.2939 14.2972L16.0348 14.2997ZM19.6969 19.3602C19.9047 19.3598 20.0739 19.5285 20.0745 19.7362C20.0749 19.944 19.9062 20.1134 19.6984 20.1139L19.0755 20.1151L19.6963 19.3602L19.6969 19.3602ZM22.3435 16.5573C22.4149 16.6284 22.4543 16.7229 22.4545 16.8237C22.4547 16.9243 22.4157 17.0189 22.3446 17.0903C22.2736 17.1616 22.1791 17.201 22.0784 17.2011L21.4711 17.2023L22.0914 16.4481C22.1866 16.4516 22.2757 16.4898 22.3435 16.5573ZM17.1388 21.363L15.5665 21.3661L17.5542 14.9997L22.3803 14.9901L17.1388 21.363Z" fill="#EEEEEE"/>
<path d="M21.3156 13.0982C21.5097 13.0979 21.6668 12.9402 21.6664 12.746C21.666 12.5517 21.5083 12.3946 21.3141 12.395L17.3478 12.403C17.1537 12.4033 16.9966 12.5611 16.997 12.7553C16.9972 12.8524 17.0367 12.9402 17.1005 13.0037C17.1643 13.0672 17.2523 13.1064 17.3494 13.1062L21.3156 13.0982Z" fill="#EEEEEE"/>
<path d="M22.4686 12.9929C22.5323 13.0564 22.6203 13.0955 22.7174 13.0953L22.7218 13.0952C22.9159 13.0949 23.073 12.9372 23.0726 12.743C23.0723 12.5489 22.9145 12.3918 22.7203 12.3922L22.7161 12.3922C22.5218 12.3926 22.3648 12.5503 22.3651 12.7445C22.3653 12.8416 22.4049 12.9294 22.4686 12.9929Z" fill="#EEEEEE"/>
</g>
<path d="M21.3665 34.1182H21.3637C21.2181 34.1182 21.1014 34.2362 21.1014 34.3818C21.1014 34.5275 21.2209 34.6455 21.3665 34.6455C21.5121 34.6455 21.6302 34.5275 21.6302 34.3818C21.6302 34.2362 21.5121 34.1182 21.3665 34.1182Z" fill="#EEEEEE"/>
<path d="M23.621 34.1182H23.6182C23.4726 34.1182 23.356 34.2362 23.356 34.3818C23.356 34.5275 23.4754 34.6455 23.621 34.6455C23.7667 34.6455 23.8847 34.5275 23.8847 34.3818C23.8847 34.2362 23.7667 34.1182 23.621 34.1182Z" fill="#EEEEEE"/>
<path d="M32.921 34.1182H32.9181C32.7725 34.1182 32.6559 34.2362 32.6559 34.3818C32.6559 34.5275 32.7753 34.6455 32.921 34.6455C33.0666 34.6455 33.1846 34.5275 33.1846 34.3818C33.1846 34.2362 33.0666 34.1182 32.921 34.1182Z" fill="#EEEEEE"/>
<path d="M35.7577 30.9302L35.4032 30.5757L34.689 28.433C34.7955 28.3992 34.8728 28.2995 34.8728 28.1818C34.8728 28.0362 34.7547 27.9181 34.6091 27.9181H32.0546V26.7728C32.0546 26.472 31.8099 26.2273 31.5091 26.2273H18.5455C18.2447 26.2273 18 26.472 18 26.7728V32.9727C18 33.2735 18.2447 33.5182 18.5455 33.5182H18.8454V34.0998C18.8454 34.4006 19.0901 34.6453 19.3909 34.6453H19.9981C20.1217 35.2866 20.6869 35.7726 21.3637 35.7726C21.8271 35.7726 22.238 35.5446 22.4909 35.195C22.7438 35.5446 23.1548 35.7726 23.6182 35.7726C24.295 35.7726 24.8602 35.2866 24.9837 34.6453H31.5526C31.6762 35.2866 32.2414 35.7726 32.9182 35.7726C33.6851 35.7726 34.3091 35.1486 34.3091 34.3817C34.3091 34.3756 34.3087 34.3697 34.3086 34.3637H35.4545C35.7553 34.3637 36 34.119 36 33.8182V31.5152C36 31.2942 35.914 31.0865 35.7577 30.9302ZM19.9981 34.118H19.3909C19.3809 34.118 19.3728 34.1099 19.3728 34.0999V33.5183H20.2744C20.138 33.69 20.0412 33.8945 19.9981 34.118ZM21.3637 35.2453C20.8875 35.2453 20.5001 34.8579 20.5001 34.3817C20.5001 33.9074 20.8846 33.5212 21.3583 33.5183H21.3691C21.8428 33.5212 22.2273 33.9073 22.2273 34.3817C22.2273 34.8579 21.8398 35.2453 21.3637 35.2453ZM23.6182 35.2453C23.142 35.2453 22.7546 34.8579 22.7546 34.3817C22.7546 33.9074 23.1391 33.5212 23.6128 33.5183H23.6236C24.0973 33.5212 24.4818 33.9073 24.4818 34.3817C24.4818 34.8579 24.0944 35.2453 23.6182 35.2453ZM31.5527 34.118H24.9838C24.9407 33.8945 24.8439 33.69 24.7075 33.5182H29.8182C29.9638 33.5182 30.0819 33.4002 30.0819 33.2546C30.0819 33.1089 29.9638 32.9909 29.8182 32.9909H18.5455C18.5355 32.9909 18.5273 32.9828 18.5273 32.9727V26.7728C18.5273 26.7628 18.5355 26.7546 18.5455 26.7546H31.5091C31.5191 26.7546 31.5272 26.7628 31.5272 26.7728V32.9909H30.9456C30.8 32.9909 30.6819 33.109 30.6819 33.2546C30.6819 33.4002 30.8 33.5183 30.9456 33.5183H31.8289C31.6925 33.69 31.5957 33.8945 31.5527 34.118ZM34.9008 30.7362H33.2C33.19 30.7362 33.1819 30.7281 33.1819 30.7181V29.5727H34.513L34.9008 30.7362ZM32.9182 35.2453C32.442 35.2453 32.0546 34.8579 32.0546 34.3817C32.0546 33.9074 32.4391 33.5212 32.9128 33.5183H32.9182C32.9188 33.5183 32.9194 33.5182 32.9201 33.5182C33.3954 33.5191 33.7818 33.9061 33.7818 34.3817C33.7818 34.8579 33.3944 35.2453 32.9182 35.2453ZM35.4727 33.8182C35.4727 33.8283 35.4646 33.8364 35.4546 33.8364H34.1976C33.9851 33.3397 33.4917 32.9908 32.9182 32.9908C32.9164 32.9908 32.9146 32.9909 32.9128 32.9909H32.0546V28.4637V28.4636C32.0546 28.4535 32.0627 28.4454 32.0728 28.4454H34.1372L34.3372 29.0453H32.9182C32.7726 29.0453 32.6545 29.1634 32.6545 29.309V30.7181C32.6545 31.0189 32.8992 31.2636 33.2 31.2636H35.3453L35.3848 31.3031C35.4415 31.3598 35.4727 31.4351 35.4727 31.5152V32.1455H35.1727C35.0271 32.1455 34.9091 32.2635 34.9091 32.4091C34.9091 32.5548 35.0271 32.6728 35.1727 32.6728H35.4727V33.8182Z" fill="#EEEEEE"/>
<path d="M30.6636 31.8638H19.3909C19.2453 31.8638 19.1272 31.9818 19.1272 32.1274C19.1272 32.2731 19.2453 32.3911 19.3909 32.3911H30.6636C30.8092 32.3911 30.9272 32.2731 30.9272 32.1274C30.9272 31.9818 30.8092 31.8638 30.6636 31.8638Z" fill="#EEEEEE"/>
<defs>
<clipPath id="clip0">
<rect width="18" height="18" fill="white" transform="translate(18.2909) rotate(44.8844)"/>
</clipPath>
</defs>
</svg>
