<svg width="20" height="20" viewBox="0 0 20 20" fill="none" xmlns="http://www.w3.org/2000/svg">
<path d="M17.6562 1.875H2.34375C1.05141 1.875 0 2.92641 0 4.21875V6.15215L8.60121 12.5498C9.01953 12.861 9.50977 13.0166 10 13.0166C10.4902 13.0166 10.9805 12.861 11.3988 12.5498L20 6.15215V4.21875C20 2.92641 18.9486 1.875 17.6562 1.875ZM18.4375 5.36703L10.4663 11.2961C10.1874 11.5036 9.81262 11.5036 9.53375 11.2961L1.5625 5.36703V4.21875C1.5625 3.78797 1.91297 3.4375 2.34375 3.4375H17.6562C18.087 3.4375 18.4375 3.78797 18.4375 4.21875V5.36703ZM18.4375 9.26168L20 8.09949V15.7812C20 17.0736 18.9486 18.125 17.6562 18.125H2.34375C1.05141 18.125 0 17.0736 0 15.7812V8.09949L1.5625 9.26168V15.7812C1.5625 16.212 1.91297 16.5625 2.34375 16.5625H17.6562C18.087 16.5625 18.4375 16.212 18.4375 15.7812V9.26168Z" fill="#EC3236"/>
<path d="M20 8.09961L18.4375 9.2618V15.7814C18.4375 16.2121 18.087 16.5626 17.6562 16.5626H2.34375C1.91297 16.5626 1.5625 16.2121 1.5625 15.7814V9.2618L0 8.09961V15.7814C0 17.0737 1.05141 18.1251 2.34375 18.1251H17.6562C18.9486 18.1251 20 17.0737 20 15.7814V8.09961Z" fill="white"/>
</svg>
