<svg width="295" height="322" viewBox="0 0 295 322" fill="none" xmlns="http://www.w3.org/2000/svg">
<g clip-path="url(#clip0)">
<path d="M25.5795 320.935L27.7587 309.245H16.0868L20.9585 282.991H6.92986L-0.0800781 320.935H25.5795Z" fill="#3776C4"/>
<path d="M40.1853 320.935L42.2581 315.879H51.3916L51.6493 320.935H65.1656L60.2119 282.991H45.1907L25.3671 320.935H40.1853ZM48.6952 300.618C49.0212 299.78 49.3323 298.936 49.6282 298.087C49.9666 297.112 50.2858 296.13 50.5855 295.142C50.5667 295.493 50.5541 295.844 50.5475 296.195C50.538 296.726 50.5335 297.257 50.5338 297.787C50.5338 298.826 50.5787 300.192 50.6685 301.884C50.6779 302.203 50.6938 302.522 50.7163 302.84L50.8705 306.913H46.0202L48.6952 300.618ZM80.9899 320.935L82.9388 310.308L82.9866 309.997C83.6961 306.003 84.0845 303.121 84.1538 301.336L91.1872 320.935H105.093L112.122 282.99H98.3445L94.6887 302.736C94.3062 300.82 93.6348 298.547 92.6637 295.923C92.5629 295.629 92.4598 295.335 92.3544 295.043L87.996 282.99H74.0629L67.0598 320.935H80.9899ZM124.08 320.935C128.783 320.935 132.688 320.539 135.781 319.751C138.877 318.968 141.601 317.691 143.952 315.931C146.458 314.066 148.407 311.738 149.79 308.949C151.171 306.159 151.863 303.159 151.863 299.968C151.863 296.563 151.075 293.571 149.488 290.984C147.911 288.404 145.621 286.369 142.629 284.883C141.263 284.243 139.514 283.768 137.376 283.459C135.242 283.145 132.584 282.991 129.396 282.991H119.125L112.123 320.935H124.08ZM130.773 294.396H131.034C133.162 294.396 134.842 294.968 136.078 296.116C137.314 297.265 137.934 298.833 137.934 300.821C137.934 303.517 137.069 305.64 135.341 307.195C133.614 308.749 131.217 309.53 128.153 309.53H127.997L130.773 294.396ZM159.231 320.089C162.103 321.259 165.026 321.837 168.005 321.837C172.707 321.837 176.601 320.516 179.689 317.861C182.777 315.205 184.319 311.897 184.319 307.921C184.319 305.4 183.706 303.319 182.477 301.678C181.248 300.034 179.155 298.549 176.201 297.217C175.85 297.062 175.375 296.856 174.773 296.594C172.489 295.629 171.347 294.722 171.347 293.877C171.347 293.371 171.54 292.972 171.933 292.67C172.317 292.367 172.835 292.215 173.475 292.215C174.532 292.215 175.685 292.542 176.938 293.199C178.191 293.859 179.589 294.861 181.125 296.209L186.447 286.902C184.54 285.313 182.453 284.119 180.177 283.324C177.905 282.53 175.424 282.134 172.724 282.134C168.053 282.134 164.276 283.382 161.387 285.876C158.498 288.377 157.052 291.603 157.052 295.555C157.052 298.066 157.793 300.205 159.269 301.973C160.75 303.744 163.115 305.302 166.365 306.655C166.702 306.796 167.04 306.933 167.38 307.067C169.351 307.857 170.338 308.605 170.338 309.296C170.338 309.746 170.108 310.108 169.66 310.382C169.209 310.657 168.61 310.794 167.845 310.794C166.135 310.794 164.413 310.303 162.695 309.309C160.973 308.314 159.362 306.884 157.858 305.02L151.058 314.943C153.637 317.21 156.36 318.923 159.231 320.088V320.089ZM203.931 320.935L208.834 294.496H216.693L218.82 282.991H188.962L186.783 294.496H194.905L190.026 320.935H203.931ZM227.096 320.935L229.169 315.879H238.305L238.564 320.935H252.077L247.12 282.991H232.101L212.282 320.935H227.096ZM235.606 300.618C236.304 298.816 236.936 296.99 237.499 295.142C237.481 295.493 237.468 295.844 237.459 296.195C237.451 296.726 237.447 297.257 237.448 297.787C237.448 298.826 237.493 300.192 237.579 301.884C237.589 302.203 237.605 302.522 237.627 302.84L237.782 306.913H232.935L235.606 300.618ZM267.67 320.935L270.239 307.143L274.363 320.935H288.451L282.976 306.345C285.952 305.705 288.255 304.343 289.887 302.26C291.522 300.181 292.341 297.557 292.341 294.396C292.341 290.664 290.923 287.827 288.086 285.894C285.253 283.957 281.094 282.991 275.609 282.991H260.98L253.971 320.935H267.67ZM272.938 292.429H273.74C275.451 292.429 276.701 292.68 277.486 293.189C278.275 293.698 278.671 294.503 278.671 295.61C278.671 297.048 278.178 298.104 277.19 298.786C276.205 299.467 274.667 299.813 272.576 299.813H271.561L272.938 292.429ZM6.34277 103.513L86.6219 166.3L54.8834 268.882L150.717 209.194L242.194 272.146L206.72 166.365L295.079 103.513H189.294L172.674 58.9819L150.717 0.163086L131.357 52.0099L124.479 70.4416L112.13 103.513H6.34277Z" fill="#3776C4"/>
<path d="M124.478 70.4416L121.851 77.4711C76.1964 91.1918 47.005 118.917 47.005 118.917C72.0517 86.9848 124.478 70.4416 124.478 70.4416ZM172.733 59.1534L175.803 67.2944C175.803 67.2944 189.265 63.8927 210.837 66.5066C226.499 68.402 247.18 73.0487 257.914 81.5309C271.974 92.6328 272.79 99.2577 274.257 105.696C278.509 124.313 259.218 145.542 259.218 145.542C269.685 136.397 286.358 114.515 282.103 98.1843C277.838 81.7814 261.508 67.1608 229.469 59.9714C202.003 53.8087 172.733 59.1524 172.733 59.1524V59.1534ZM10.7423 177.769C16.344 195.796 37.5026 219.421 90.5354 219.679C111.264 219.776 142.842 218.372 184.031 204.982C231.435 189.57 266.086 154.033 266.086 154.033C219.994 190.286 185.667 206.286 117.669 212.164C101.352 213.577 31.1446 213.873 16.9666 172.796C10.7423 154.766 15.7204 141.091 29.4124 122.439C6.3868 144.2 5.54654 161.05 10.7423 177.769Z" fill="#F4F4F4"/>
<path d="M248.711 265.82V263.802H250.058C250.743 263.802 251.476 263.952 251.476 264.757C251.476 265.762 250.729 265.82 249.892 265.82H248.711ZM248.711 266.656H249.848L251.565 269.469H252.67L250.818 266.611C251.775 266.491 252.509 265.985 252.509 264.819C252.509 263.532 251.744 262.965 250.209 262.965H247.727V269.468H248.711V266.656ZM249.909 271.846C252.983 271.846 255.597 269.469 255.597 266.205C255.597 262.965 252.983 260.595 249.909 260.595C246.793 260.595 244.163 262.964 244.163 266.205C244.163 269.469 246.793 271.846 249.909 271.846ZM245.293 266.205C245.293 263.533 247.317 261.527 249.909 261.527C252.46 261.527 254.471 263.533 254.471 266.205C254.471 268.919 252.46 270.91 249.909 270.91C247.317 270.91 245.293 268.919 245.293 266.205Z" fill="#F4F4F4"/>
</g>
<defs>
<clipPath id="clip0">
<rect width="295" height="322" fill="white"/>
</clipPath>
</defs>
</svg>
