<svg width="18" height="18" viewBox="0 0 18 18" fill="none" xmlns="http://www.w3.org/2000/svg">
<path d="M5.48438 9C5.48438 9.38834 5.79916 9.70312 6.1875 9.70312H8.29688V11.8125C8.29688 12.2008 8.61166 12.5156 9 12.5156C9.38834 12.5156 9.70312 12.2008 9.70312 11.8125V9.70312H11.8125C12.2008 9.70312 12.5156 9.38834 12.5156 9C12.5156 8.61166 12.2008 8.29688 11.8125 8.29688H9.70312V6.1875C9.70312 5.79916 9.38834 5.48438 9 5.48438C8.61166 5.48438 8.29688 5.79916 8.29688 6.1875V8.29688H6.1875C5.79916 8.29688 5.48438 8.61166 5.48438 9Z" fill="white"/>
<path d="M5.63942 2.17258L6.54887 1.79584C6.90761 1.6472 7.07801 1.23591 6.92937 0.877138C6.78073 0.518368 6.36947 0.347896 6.01067 0.496642L5.10121 0.873376C4.74248 1.02202 4.57207 1.43331 4.72071 1.79208C4.86886 2.14965 5.27949 2.32157 5.63942 2.17258Z" fill="white"/>
<path d="M9 0C8.61166 0 8.29688 0.314789 8.29688 0.703125C8.29688 1.09146 8.61166 1.40625 9 1.40625C13.1969 1.40625 16.5938 4.80263 16.5938 9C16.5938 13.1969 13.1974 16.5938 9 16.5938C4.80312 16.5938 1.40625 13.1974 1.40625 9C1.40625 8.61166 1.09146 8.29688 0.703125 8.29688C0.314789 8.29688 0 8.61166 0 9C0 13.974 4.02528 18 9 18C13.974 18 18 13.9747 18 9C18 4.02599 13.9747 0 9 0Z" fill="white"/>
<path d="M3.28238 3.97842L3.97844 3.28237C4.25304 3.00776 4.25304 2.56254 3.97844 2.28797C3.70383 2.0134 3.25861 2.01337 2.98404 2.28797L2.28799 2.98403C2.01338 3.25864 2.01338 3.70385 2.28799 3.97842C2.56252 4.25296 3.00777 4.25303 3.28238 3.97842Z" fill="white"/>
<path d="M0.877089 6.92939C1.23663 7.07831 1.6475 6.90682 1.79579 6.5489L2.17253 5.6394C2.32117 5.28063 2.15076 4.86934 1.79203 4.7207C1.43319 4.57209 1.02197 4.74246 0.873327 5.1012L0.496593 6.01065C0.347952 6.36946 0.518354 6.78075 0.877089 6.92939Z" fill="white"/>
</svg>
