<svg width="60" height="60" viewBox="0 0 60 60" fill="none" xmlns="http://www.w3.org/2000/svg">
<g clip-path="url(#clip0)">
<path d="M1.75781 10.6641C2.72859 10.6641 3.51562 9.87703 3.51562 8.90625V3.51562H8.90625C9.87703 3.51562 10.6641 2.72859 10.6641 1.75781C10.6641 0.787031 9.87703 0 8.90625 0H1.75781C0.787031 0 0 0.787031 0 1.75781V8.90625C0 9.87703 0.787031 10.6641 1.75781 10.6641Z" fill="#EC3236"/>
<path d="M1.75781 60H8.90625C9.87703 60 10.6641 59.213 10.6641 58.2422C10.6641 57.2714 9.87703 56.4844 8.90625 56.4844H3.51562V51.0938C3.51562 50.123 2.72859 49.3359 1.75781 49.3359C0.787031 49.3359 0 50.123 0 51.0938V58.2422C0 59.213 0.787031 60 1.75781 60Z" fill="#EC3236"/>
<path d="M58.2422 10.6641C59.213 10.6641 60 9.87703 60 8.90625V1.75781C60 0.787031 59.213 0 58.2422 0H51.0938C50.123 0 49.3359 0.787031 49.3359 1.75781C49.3359 2.72859 50.123 3.51562 51.0938 3.51562H56.4844V8.90625C56.4844 9.87703 57.2714 10.6641 58.2422 10.6641Z" fill="#EC3236"/>
<path d="M58.2422 49.3359C57.2714 49.3359 56.4844 50.123 56.4844 51.0938V56.4844H51.0938C50.123 56.4844 49.3359 57.2714 49.3359 58.2422C49.3359 59.213 50.123 60 51.0938 60H58.2422C59.213 60 60 59.213 60 58.2422V51.0938C60 50.123 59.213 49.3359 58.2422 49.3359Z" fill="#EC3236"/>
<path d="M30 42.3047C36.7848 42.3047 42.3047 36.7848 42.3047 30C42.3047 23.2152 36.7848 17.6953 30 17.6953C23.2152 17.6953 17.6953 23.2152 17.6953 30C17.6953 36.7848 23.2152 42.3047 30 42.3047ZM30 21.2109C34.8463 21.2109 38.7891 25.1537 38.7891 30C38.7891 34.8463 34.8463 38.7891 30 38.7891C25.1537 38.7891 21.2109 34.8463 21.2109 30C21.2109 25.1537 25.1537 21.2109 30 21.2109Z" fill="white"/>
<path d="M30 35.2734C32.9078 35.2734 35.2734 32.9078 35.2734 30C35.2734 27.0922 32.9078 24.7266 30 24.7266C27.0922 24.7266 24.7266 27.0922 24.7266 30C24.7266 32.9078 27.0922 35.2734 30 35.2734ZM30 28.2422C30.9693 28.2422 31.7578 29.0307 31.7578 30C31.7578 30.9693 30.9693 31.7578 30 31.7578C29.0307 31.7578 28.2422 30.9693 28.2422 30C28.2422 29.0307 29.0307 28.2422 30 28.2422Z" fill="white"/>
<path d="M8.90903 40.1228C14.8378 45.2126 22.1602 49.3359 30.0001 49.3359C37.8403 49.3359 45.1629 45.2121 51.0911 40.1228C56.3079 35.6443 59.532 31.2162 59.6668 31.0298C60.1113 30.4151 60.1113 29.5847 59.6668 28.97C59.5322 28.7837 56.3079 24.3555 51.0911 19.8771C45.1624 14.7874 37.8399 10.6641 30.0001 10.6641C22.1599 10.6641 14.8373 14.7879 8.90903 19.8772C3.69231 24.3557 0.468135 28.7838 0.333369 28.9702C-0.111123 29.5849 -0.111123 30.4153 0.333369 31.03C0.468135 31.2162 3.69243 35.6445 8.90903 40.1228ZM30.0001 14.1797C37.4618 14.1797 44.3106 18.7011 48.7422 22.4943C52.2124 25.4644 54.7902 28.4709 56.0188 29.9994C54.8069 31.5049 52.2808 34.4475 48.8674 37.3905C43.9796 41.6048 37.2727 45.8203 30.0001 45.8203C22.5384 45.8203 15.6896 41.2989 11.2579 37.5057C7.78755 34.5354 5.20966 31.5287 3.98142 30.0006C5.19325 28.4951 7.71946 25.5526 11.1329 22.6095C16.0206 18.3952 22.7274 14.1797 30.0001 14.1797Z" fill="white"/>
</g>
<defs>
<clipPath id="clip0">
<rect width="60" height="60" fill="white"/>
</clipPath>
</defs>
</svg>
