<svg width="14" height="14" viewBox="0 0 14 14" fill="none" xmlns="http://www.w3.org/2000/svg">
<g clip-path="url(#clip0)">
<path d="M13.9145 6.79352L10.3173 3.1963C10.2034 3.08235 10.0188 3.08235 9.9049 3.1963C9.79096 3.31024 9.79096 3.49481 9.9049 3.60872L13.0043 6.70807H0.291676C0.130457 6.70807 0 6.83853 0 6.99974C0 7.16096 0.130457 7.29142 0.291676 7.29142H13.0043L9.9049 10.3907C9.79096 10.5047 9.79096 10.6893 9.9049 10.8032C9.96186 10.8601 10.0365 10.8886 10.1111 10.8886C10.1858 10.8886 10.2604 10.8601 10.3174 10.8032L13.9146 7.20594C14.0285 7.09203 14.0285 6.90746 13.9145 6.79352Z" fill="#EC3236"/>
</g>
<defs>
<clipPath id="clip0">
<rect width="14" height="14" fill="white"/>
</clipPath>
</defs>
</svg>
