<svg width="35" height="35" viewBox="0 0 35 35" fill="none" xmlns="http://www.w3.org/2000/svg">
<path opacity="0.1" fill-rule="evenodd" clip-rule="evenodd" d="M0 17.5C0 7.83502 7.83502 0 17.5 0C27.165 0 35 7.83502 35 17.5C35 27.165 27.165 35 17.5 35C7.83502 35 0 27.165 0 17.5Z" fill="white"/>
<path fill-rule="evenodd" clip-rule="evenodd" d="M17.9759 15.2242L18.0126 15.8298L17.4006 15.7556C15.1727 15.4714 13.2264 14.5075 11.5739 12.8886L10.766 12.0853L10.5579 12.6785C10.1172 14.0008 10.3988 15.3972 11.3168 16.3364C11.8065 16.8555 11.6963 16.9296 10.8517 16.6207C10.5579 16.5218 10.3008 16.4477 10.2764 16.4847C10.1907 16.5712 10.4845 17.6958 10.717 18.1407C11.0353 18.7586 11.6841 19.3641 12.394 19.7225L12.9938 20.0067L12.2839 20.0191C11.5984 20.0191 11.5739 20.0315 11.6473 20.291C11.8922 21.0942 12.8592 21.9469 13.9364 22.3177L14.6953 22.5772L14.0343 22.9727C13.055 23.5411 11.9044 23.8624 10.7538 23.8871C10.2029 23.8995 9.75 23.9489 9.75 23.986C9.75 24.1096 11.2434 24.8016 12.1125 25.0735C14.7198 25.8768 17.8167 25.5307 20.1425 24.159C21.795 23.1827 23.4476 21.2425 24.2187 19.3641C24.6349 18.3631 25.0511 16.5342 25.0511 15.6567C25.0511 15.0883 25.0878 15.0141 25.7733 14.3344C26.1773 13.939 26.5567 13.5065 26.6302 13.3829C26.7526 13.1481 26.7404 13.1481 26.1161 13.3582C25.0756 13.7289 24.9287 13.6795 25.4428 13.1234C25.8223 12.7279 26.2752 12.0112 26.2752 11.8011C26.2752 11.764 26.0916 11.8258 25.8835 11.937C25.6632 12.0606 25.1735 12.246 24.8063 12.3572L24.1453 12.5673L23.5455 12.1594C23.215 11.937 22.7498 11.6898 22.505 11.6157C21.8807 11.4427 20.9259 11.4674 20.3629 11.6651C18.8327 12.2212 17.8657 13.6548 17.9759 15.2242Z" fill="white"/>
</svg>
