<svg width="35" height="35" viewBox="0 0 35 35" fill="none" xmlns="http://www.w3.org/2000/svg">
<path opacity="0.1" fill-rule="evenodd" clip-rule="evenodd" d="M0 17.5C0 7.83502 7.83502 0 17.5 0C27.165 0 35 7.83502 35 17.5C35 27.165 27.165 35 17.5 35C7.83502 35 0 27.165 0 17.5Z" fill="white"/>
<path fill-rule="evenodd" clip-rule="evenodd" d="M17.5008 8.1665C14.966 8.1665 14.6479 8.17759 13.6523 8.22289C12.6587 8.26839 11.9805 8.4257 11.387 8.65651C10.7732 8.8949 10.2525 9.21379 9.73367 9.73277C9.2145 10.2516 8.89561 10.7723 8.65644 11.386C8.42505 11.9796 8.26754 12.658 8.22282 13.6513C8.17829 14.6468 8.16663 14.9651 8.16663 17.4999C8.16663 20.0347 8.1779 20.3519 8.22302 21.3474C8.26871 22.3411 8.42602 23.0193 8.65663 23.6127C8.89522 24.2266 9.21411 24.7473 9.73309 25.2661C10.2517 25.7853 10.7724 26.105 11.3859 26.3434C11.9797 26.5742 12.6581 26.7315 13.6516 26.777C14.6471 26.8223 14.9651 26.8334 17.4997 26.8334C20.0347 26.8334 20.3518 26.8223 21.3474 26.777C22.341 26.7315 23.02 26.5742 23.6138 26.3434C24.2275 26.105 24.7475 25.7853 25.2661 25.2661C25.7852 24.7473 26.1041 24.2266 26.3433 23.6129C26.5727 23.0193 26.7302 22.3409 26.7769 21.3476C26.8216 20.3521 26.8333 20.0347 26.8333 17.4999C26.8333 14.9651 26.8216 14.647 26.7769 13.6514C26.7302 12.6578 26.5727 11.9796 26.3433 11.3861C26.1041 10.7723 25.7852 10.2516 25.2661 9.73277C24.7469 9.2136 24.2277 8.89471 23.6133 8.65651C23.0183 8.4257 22.3396 8.26839 21.346 8.22289C20.3504 8.17759 20.0335 8.1665 17.4979 8.1665H17.5008ZM16.6635 9.84844C16.912 9.84805 17.1893 9.84844 17.5008 9.84844C19.9928 9.84844 20.2882 9.85738 21.2723 9.90211C22.1823 9.94372 22.6762 10.0958 23.0052 10.2235C23.4407 10.3927 23.7513 10.5949 24.0778 10.9216C24.4044 11.2483 24.6066 11.5594 24.7762 11.9949C24.904 12.3235 25.0562 12.8174 25.0976 13.7275C25.1423 14.7114 25.1521 15.0069 25.1521 17.4978C25.1521 19.9886 25.1423 20.2842 25.0976 21.2681C25.056 22.1781 24.904 22.672 24.7762 23.0006C24.607 23.4362 24.4044 23.7463 24.0778 24.0728C23.7511 24.3995 23.4409 24.6017 23.0052 24.7708C22.6766 24.8992 22.1823 25.0508 21.2723 25.0925C20.2884 25.1372 19.9928 25.1469 17.5008 25.1469C15.0086 25.1469 14.7132 25.1372 13.7293 25.0925C12.8193 25.0505 12.3254 24.8984 11.9962 24.7707C11.5606 24.6015 11.2495 24.3993 10.9229 24.0726C10.5962 23.7459 10.394 23.4356 10.2244 22.9998C10.0967 22.6712 9.94441 22.1773 9.90299 21.2673C9.85827 20.2834 9.84933 19.9879 9.84933 17.4954C9.84933 15.003 9.85827 14.709 9.90299 13.7251C9.9446 12.8151 10.0967 12.3212 10.2244 11.9922C10.3936 11.5567 10.5962 11.2455 10.9229 10.9189C11.2495 10.5922 11.5606 10.39 11.9962 10.2204C12.3252 10.0921 12.8193 9.94041 13.7293 9.89861C14.5903 9.85972 14.924 9.84805 16.6635 9.84611V9.84844ZM22.4829 11.3982C21.8646 11.3982 21.3629 11.8993 21.3629 12.5178C21.3629 13.1361 21.8646 13.6378 22.4829 13.6378C23.1012 13.6378 23.6029 13.1361 23.6029 12.5178C23.6029 11.8995 23.1012 11.3982 22.4829 11.3982ZM17.5009 12.7068C14.8539 12.7068 12.7077 14.8529 12.7077 17.4999C12.7077 20.1469 14.8539 22.292 17.5009 22.292C20.1479 22.292 22.2932 20.1469 22.2932 17.4999C22.2932 14.8529 20.1479 12.7068 17.5009 12.7068ZM17.5008 14.3888C19.2189 14.3888 20.612 15.7816 20.612 17.4999C20.612 19.218 19.2189 20.6111 17.5008 20.6111C15.7825 20.6111 14.3897 19.218 14.3897 17.4999C14.3897 15.7816 15.7825 14.3888 17.5008 14.3888Z" fill="white"/>
</svg>
