<svg width="35" height="35" viewBox="0 0 35 35" fill="none" xmlns="http://www.w3.org/2000/svg">
<path opacity="0.1" fill-rule="evenodd" clip-rule="evenodd" d="M0 17.5C0 7.83502 7.83502 0 17.5 0C27.165 0 35 7.83502 35 17.5C35 27.165 27.165 35 17.5 35C7.83502 35 0 27.165 0 17.5Z" fill="white"/>
<path d="M12.1668 9.76172C11.1356 9.76172 10.4614 10.4388 10.4614 11.3288C10.4614 12.1991 11.1155 12.8956 12.1272 12.8956H12.1468C13.1981 12.8956 13.8524 12.1991 13.8524 11.3288C13.8328 10.4388 13.1981 9.76172 12.1668 9.76172V9.76172Z" fill="white"/>
<path d="M10.6395 14.1343H13.6541V23.2036H10.6395V14.1343Z" fill="white"/>
<path d="M21.0535 13.9209C19.4273 13.9209 18.3368 15.449 18.3368 15.449V14.1338H15.3221V23.2032H18.3366V18.1385C18.3366 17.8673 18.3563 17.5966 18.4359 17.4027C18.6538 16.8613 19.1498 16.3004 19.9826 16.3004C21.0734 16.3004 21.5097 17.1321 21.5097 18.3513V23.2032H24.524V18.0029C24.524 15.2172 23.0367 13.9209 21.0535 13.9209V13.9209Z" fill="white"/>
</svg>
