<svg width="35" height="35" viewBox="0 0 35 35" fill="none" xmlns="http://www.w3.org/2000/svg">
<path opacity="0.1" fill-rule="evenodd" clip-rule="evenodd" d="M0 17.5C0 7.83502 7.83502 0 17.5 0C27.165 0 35 7.83502 35 17.5C35 27.165 27.165 35 17.5 35C7.83502 35 0 27.165 0 17.5Z" fill="white"/>
<path d="M20.1743 11.3208H22V8.14083C21.685 8.0975 20.6018 8 19.3402 8C16.7079 8 14.9048 9.65583 14.9048 12.6992V15.5H12V19.055H14.9048V28H18.4661V19.0558H21.2534L21.6959 15.5008H18.4653V13.0517C18.4661 12.0242 18.7428 11.3208 20.1743 11.3208V11.3208Z" fill="white"/>
</svg>
