<svg width="36" height="36" viewBox="0 0 36 36" fill="none" xmlns="http://www.w3.org/2000/svg">
<path d="M34.4833 16.1611C34.4254 13.3555 33.6495 10.6058 32.2352 8.19035C33.3859 2.6855 27.5654 -1.79088 22.5525 0.7123C17.8269 -0.69663 12.3328 0.0525733 7.99892 3.40772C7.44913 3.82931 8.11342 4.64838 8.64045 4.24443C9.97143 3.22391 11.4459 2.43275 13.023 1.89272C14.6672 1.32971 16.3892 1.05243 18.1422 1.06733C19.2382 1.07689 20.3274 1.20242 21.389 1.44084C20.9749 1.76227 20.5987 2.1303 20.2683 2.53699C12.0678 1.136 4.26155 7.47734 3.88741 15.7167C3.45506 15.6957 3.00951 15.7257 2.5915 15.8398C2.73707 12.3453 4.06924 8.95867 6.29893 6.46062C6.75285 5.95216 5.96626 5.25011 5.5124 5.75858C3.00698 8.56548 1.55868 12.4124 1.52445 16.3369C0.607894 16.9704 0.00622559 18.0284 0.00622559 19.2243V24.3184C0.00622559 26.5698 1.92327 27.8783 4.00029 27.826C4.73522 29.9495 7.83339 29.4882 7.88611 27.2096V16.1521C7.90966 14.744 6.37807 13.7433 5.10122 14.3252C6.17389 7.5936 12.6661 2.59954 19.609 3.50816C18.1188 6.05239 18.619 9.62613 20.7771 11.6769V13.1084C20.8475 13.5323 21.0916 13.6941 21.5095 13.594L22.7927 13.0518C25.2131 14.1858 28.3666 13.6067 30.2152 11.7941C30.5334 12.6161 30.7657 13.4637 30.9108 14.3304C29.6328 13.7392 28.0905 14.7368 28.1141 16.152V27.2095C28.0989 28.7089 29.7716 29.6911 31.069 28.9525C31.0663 29.4183 31.0578 29.8839 31.0395 30.345C30.914 31.8554 29.7494 33.1235 28.2642 33.3684C27.7923 33.4148 27.2541 33.4328 26.596 33.4234C26.36 32.5572 25.5665 31.9186 24.6266 31.9186H21.8274C19.1208 32.0303 19.1202 35.888 21.8274 36H24.6265C25.5726 36 26.3704 35.3528 26.6004 34.4778C27.1953 34.4858 27.8251 34.5067 28.4157 34.4119C30.3855 34.0967 31.959 32.4175 32.1189 30.419C32.1194 30.4119 32.1186 30.405 32.1189 30.398C32.1555 29.4807 32.1279 28.5542 32.1189 27.645C34.1564 27.7437 35.9939 26.2587 35.9939 24.1374V19.0434C35.9939 17.8507 35.3956 16.7952 34.4833 16.1611ZM1.06055 24.3184V19.2243C1.06055 17.6876 2.41311 16.6876 3.86555 16.7711V26.7716C2.41234 26.8522 1.06055 25.8599 1.06055 24.3184ZM5.89442 15.2148C6.41132 15.2148 6.83179 15.6353 6.83179 16.1521V27.2096C6.78012 28.4535 5.00822 28.4524 4.95706 27.2096V16.1521C4.95706 15.6352 5.37759 15.2148 5.89442 15.2148ZM24.6265 34.9457H21.8274C21.2835 34.9457 20.841 34.5032 20.841 33.9592C20.841 33.4153 21.2834 32.9728 21.8274 32.9728H24.6265C25.9343 33.0267 25.9354 34.8914 24.6265 34.9457ZM33.4094 15.659C32.991 15.5448 32.5449 15.5147 32.1122 15.5358C32.0041 13.9398 31.6302 12.3912 30.9982 10.9237C31.311 10.5097 31.5778 10.0591 31.7907 9.57945C32.7407 11.4682 33.2934 13.5407 33.4094 15.659ZM25.5592 12.5829C24.6739 12.5829 23.8246 12.3873 23.0347 12.0015C22.89 11.9343 22.7445 11.9304 22.5981 11.9895L21.8315 12.3134V11.4512C21.8315 11.3037 21.7697 11.163 21.6612 11.0632C17.8228 7.5406 20.3437 1.06388 25.5593 1.06676C33.1993 1.38285 33.1976 12.2677 25.5592 12.5829ZM34.9395 24.1374C34.9395 25.6908 33.568 26.679 32.1066 26.5906C32.1 26.0241 32.0963 25.4576 32.0974 24.8911C32.0974 24.2095 31.043 24.2095 31.043 24.8911V27.2095C31.043 27.7264 30.6225 28.1469 30.1057 28.1469C29.5888 28.1469 29.1683 27.7264 29.1683 27.2095V16.1521C29.2183 14.9116 30.9904 14.9059 31.043 16.1521V22.0847C31.043 22.7663 32.0974 22.7663 32.0974 22.0847V16.5901C33.5623 16.5071 34.9395 17.4765 34.9395 19.0434V24.1374Z" fill="#EEEEEE"/>
<path d="M22.7959 29.6972C23.2138 29.7973 23.4579 29.6355 23.5282 29.2116V27.4903C28.5785 22.58 25.0548 13.9026 17.9999 13.9116C13.6352 13.9116 10.084 17.4621 10.084 21.8262C10.0171 27.4883 16.1227 31.4305 21.2506 29.0443L22.7959 29.6972ZM21.0078 27.9936C16.5501 30.2384 11.0771 26.8227 11.1384 21.8261C11.1384 18.0434 14.2165 14.9659 18 14.9659C24.2144 14.9631 27.2173 22.6795 22.6442 26.8757C22.5356 26.9755 22.4739 27.1163 22.4739 27.2637V28.4166L21.4444 27.9817C21.304 27.9223 21.1448 27.9267 21.0078 27.9936Z" fill="#EEEEEE"/>
<path d="M16.5901 19.3964H19.4101C20.0917 19.3964 20.0917 18.342 19.4101 18.342H16.5901C15.9084 18.342 15.9084 19.3964 16.5901 19.3964Z" fill="#EEEEEE"/>
<path d="M19.4101 24.2559H16.59C15.9085 24.2559 15.9085 25.3102 16.59 25.3102H19.4101C20.0917 25.3102 20.0917 24.2559 19.4101 24.2559Z" fill="#EEEEEE"/>
<path d="M20.9187 21.2991H15.0813C14.3997 21.2991 14.3997 22.3534 15.0813 22.3534H20.9187C21.6003 22.3534 21.6003 21.2991 20.9187 21.2991Z" fill="#EEEEEE"/>
<path d="M25.6054 2.80167C24.3602 2.77785 23.3075 3.8075 23.3075 5.05294C23.3075 5.73453 24.3618 5.73453 24.3618 5.05294C24.3618 4.40397 24.9331 3.84159 25.5842 3.85579C26.2084 3.86837 26.7227 4.36594 26.755 4.98856C26.7901 5.66543 26.238 6.25037 25.5593 6.25037C25.2681 6.25037 25.0321 6.4864 25.0321 6.77754V8.58085C25.0321 8.87199 25.2681 9.10802 25.5593 9.10802C25.8504 9.10802 26.0864 8.87199 26.0864 8.58085V7.24144C27.1277 6.98889 27.8635 6.00464 27.8079 4.93387C27.7471 3.76195 26.7796 2.82536 25.6054 2.80167Z" fill="#EEEEEE"/>
<path d="M25.5592 9.86353C24.8807 9.86353 24.8796 10.9179 25.5592 10.9179C26.2375 10.9179 26.2386 9.86353 25.5592 9.86353Z" fill="#EEEEEE"/>
</svg>
