<svg width="36" height="36" viewBox="0 0 36 36" fill="none" xmlns="http://www.w3.org/2000/svg">
<g clip-path="url(#clip0)">
<path d="M33.7374 3.04317C28.9168 -1.70951 20.902 1.78277 20.8056 8.34133C20.768 10.9731 22.0655 13.4005 24.2762 14.8329C24.7374 15.1317 24.5967 15.0188 27.3474 19.8778C27.3966 19.9646 27.4543 20.0418 27.5177 20.1104L23.5047 23.9765C22.0485 22.5307 19.6309 22.7988 18.5273 24.5385L13.171 21.3505C13.163 19.5853 11.7238 18.1507 9.95636 18.1507C7.15073 18.1507 5.70712 21.5065 7.59924 23.5478L4.0946 28.8432C2.05252 28.259 0 29.799 0 31.935C0 33.7071 1.44141 35.1493 3.21378 35.1493C6.30533 35.1493 7.60638 31.1869 5.12155 29.3499L8.50781 24.2342C10.1769 25.0837 12.2506 24.3141 12.9479 22.5401L18.0945 25.6033C17.6789 27.5932 19.2074 29.4713 21.2415 29.4713C23.5805 29.4713 25.1395 27.0359 24.1636 24.9183C29.072 20.1895 28.7704 20.4873 28.8191 20.4202C29.0756 20.328 29.3058 20.1475 29.4582 19.8778C32.2075 15.021 32.068 15.1317 32.5308 14.8321C34.7033 13.4233 36 11.0385 36 8.45284C36 6.40389 35.1966 4.48238 33.7374 3.04317ZM5.29266 31.935C5.29266 33.0812 4.35992 34.0139 3.21378 34.0139C2.06763 34.0139 1.13571 33.0812 1.13571 31.935C1.13571 30.7886 2.06763 29.8561 3.21378 29.8561C4.35992 29.8561 5.29266 30.7886 5.29266 31.935ZM8.25513 22.5576C7.29492 21.1962 8.26996 19.2865 9.95636 19.2865C11.1083 19.2865 12.0352 20.2255 12.0352 21.3653C12.0352 23.3811 9.42407 24.2212 8.25513 22.5576ZM21.2415 28.3359C19.868 28.3359 19.0635 27.0428 19.164 26.2392C19.1764 24.416 21.3819 23.4975 22.6865 24.7651C24.018 26.0496 23.1136 28.3359 21.2415 28.3359ZM31.9515 13.9386C31.5854 14.1762 31.2803 14.4983 31.0693 14.8711C28.3343 19.7026 28.5282 19.4285 28.403 19.4285C28.2774 19.4285 28.4757 19.7103 25.7363 14.8711C25.5254 14.4983 25.221 14.1762 24.8546 13.9391C22.9535 12.707 21.8375 10.6204 21.8702 8.35699C21.9523 2.65673 28.8954 -0.234597 32.99 3.80123C35.9651 6.73568 35.457 11.6658 31.9515 13.9386Z" fill="#EEEEEE"/>
<path d="M32.6571 5.30505C30.8729 2.88751 27.5512 2.50161 25.263 4.19048C22.9653 5.88622 22.3852 9.19531 24.1482 11.5846C26.0233 14.1254 29.6043 14.4264 31.8952 12.4149C32.1309 12.208 32.1542 11.8493 31.9474 11.6137C31.7406 11.378 31.3819 11.3547 31.1459 11.5615C29.3409 13.1454 26.5314 12.9015 25.062 10.9103C23.6783 9.03491 24.1331 6.43582 25.9373 5.104C27.7405 3.77328 30.3467 4.08721 31.7433 5.97933C32.6445 7.20046 32.7766 8.74734 32.2295 10.0561C32.1086 10.3453 32.2451 10.6779 32.5343 10.799C32.8236 10.9196 33.1564 10.7834 33.2773 10.4939C33.9546 8.87368 33.8302 6.89449 32.6571 5.30505Z" fill="#EEEEEE"/>
</g>
<defs>
<clipPath id="clip0">
<rect width="36" height="36" fill="white"/>
</clipPath>
</defs>
</svg>
